<?xml version="1.0" encoding="UTF-8" ?>
<!DOCTYPE svg PUBLIC "-//W3C//DTD SVG 1.1//EN" "http://www.w3.org/Graphics/SVG/1.1/DTD/svg11.dtd">
<svg width="664pt" height="664pt" viewBox="0 0 664 664" version="1.1" xmlns="http://www.w3.org/2000/svg">
<g id="#fbfbfbfe">
<path fill="#fbfbfb" opacity="1.00" d=" M 292.63 63.54 C 301.41 50.90 315.68 42.17 331.00 40.44 C 344.79 39.40 358.67 44.94 368.82 54.18 C 379.36 64.01 385.59 77.55 389.30 91.28 C 391.20 100.74 393.82 110.16 393.69 119.88 C 394.23 123.23 394.85 126.59 394.75 130.01 C 394.83 160.53 394.82 191.07 394.53 221.58 C 402.65 227.17 411.50 231.70 419.86 236.95 C 424.93 239.59 429.65 242.86 434.76 245.41 C 436.32 246.17 437.60 247.35 438.95 248.43 C 446.66 253.35 454.96 257.34 462.60 262.41 C 465.97 264.69 469.69 266.37 473.51 267.77 L 474.38 268.20 C 486.15 276.07 498.88 282.40 510.73 290.16 C 518.10 295.81 526.79 299.34 534.50 304.46 C 538.99 307.44 543.92 309.68 548.63 312.29 C 555.55 316.30 562.44 320.38 569.11 324.82 C 578.54 329.96 587.65 335.66 596.77 341.34 C 604.38 346.76 611.13 355.21 610.77 365.02 C 610.93 384.01 610.78 403.01 610.81 422.00 C 611.48 430.37 601.26 435.63 594.10 432.78 C 526.69 409.49 459.38 385.84 391.92 362.70 C 390.57 362.14 389.38 363.56 388.68 364.52 C 388.41 378.02 388.84 391.54 388.36 405.03 C 386.81 415.28 387.73 425.69 387.35 436.01 C 386.15 449.63 386.47 463.35 386.27 477.02 C 384.52 490.26 385.44 503.69 385.26 517.02 C 386.84 519.82 390.06 521.39 392.49 523.49 C 403.79 532.51 415.17 541.45 426.41 550.55 C 431.29 554.32 435.98 558.34 440.33 562.71 C 444.08 566.44 446.68 571.61 446.47 577.00 C 446.66 588.67 446.66 600.34 446.65 612.02 C 446.88 616.05 444.78 620.39 440.99 622.10 C 435.98 625.00 429.99 623.05 425.11 620.85 C 408.11 612.80 391.06 604.88 373.96 597.07 C 367.99 594.33 362.26 590.86 355.86 589.23 C 353.18 592.44 350.82 596.13 347.12 598.28 C 341.46 601.38 334.51 602.74 328.31 600.47 C 322.68 598.76 318.35 594.29 315.53 589.27 C 314.28 589.37 312.97 589.37 311.84 590.00 C 292.61 599.32 272.88 607.54 253.71 616.98 C 246.73 619.54 240.16 624.86 232.30 623.47 C 229.38 622.52 226.23 621.17 224.65 618.38 C 222.85 615.59 223.21 612.14 223.12 609.00 C 223.20 598.33 222.97 587.66 223.27 577.00 C 223.19 572.34 225.02 567.66 228.49 564.50 C 238.55 554.43 250.01 545.92 261.00 536.90 C 267.32 532.33 272.83 526.77 279.16 522.22 C 280.79 520.99 282.29 519.59 283.75 518.16 C 283.91 500.77 283.80 483.37 283.30 465.99 C 281.65 451.72 283.79 437.22 281.64 422.99 C 281.31 413.33 281.64 403.65 281.35 393.99 C 279.83 383.65 280.85 373.15 280.25 362.74 C 279.71 362.43 278.65 361.81 278.11 361.49 C 264.91 366.93 251.18 370.95 237.84 376.02 C 182.79 394.78 127.97 414.28 72.92 433.01 C 69.39 433.79 65.65 433.94 62.10 433.22 C 57.87 431.22 54.23 426.95 54.54 422.03 C 54.47 405.69 54.43 389.35 54.45 373.01 C 54.52 368.10 54.13 363.08 55.68 358.35 C 57.44 353.13 60.38 348.23 64.49 344.52 C 68.69 340.47 74.12 338.11 78.81 334.73 C 91.31 327.29 104.01 320.19 116.61 312.94 C 125.88 308.35 134.53 302.66 143.46 297.46 C 146.97 295.34 151.25 294.42 154.13 291.33 C 156.18 289.10 159.07 288.04 161.57 286.44 C 168.39 282.22 175.67 278.76 182.31 274.23 C 184.16 272.98 186.16 271.98 188.21 271.11 C 196.81 267.01 204.64 261.50 213.07 257.06 C 217.61 254.35 222.58 252.30 226.78 249.03 C 238.99 240.87 252.19 234.29 264.74 226.66 C 267.85 224.52 272.80 223.52 273.24 219.07 C 273.39 215.71 273.31 212.35 273.26 209.00 C 272.17 200.71 272.79 192.32 272.49 183.99 C 272.43 169.33 272.54 154.66 272.62 140.00 C 272.44 131.29 273.50 122.64 274.47 114.01 C 277.25 96.29 281.96 78.28 292.63 63.54 Z" />
</g>
<g id="#bdbebad7">
<path fill="#bdbeba" opacity="0.84" d=" M 192.65 201.28 C 193.14 195.76 198.41 192.09 203.31 190.58 C 208.39 190.08 214.38 189.75 218.13 193.92 C 214.51 192.72 210.87 191.31 207.03 191.12 C 205.58 190.94 204.66 192.26 203.68 193.08 C 200.45 196.36 196.67 199.05 192.65 201.28 Z" />
</g>
<g id="#dbdbdafe">
<path fill="#dbdbda" opacity="1.00" d=" M 203.68 193.08 C 204.66 192.26 205.58 190.94 207.03 191.12 C 210.87 191.31 214.51 192.72 218.13 193.92 C 222.20 195.99 223.89 200.96 224.45 205.23 C 224.56 212.82 226.05 220.43 224.82 228.00 C 224.53 233.69 224.74 239.39 224.75 245.08 C 224.60 246.69 225.77 247.94 226.78 249.03 C 222.58 252.30 217.61 254.35 213.07 257.06 C 204.64 261.50 196.81 267.01 188.21 271.11 C 189.22 269.84 191.00 268.81 190.72 266.95 C 190.59 248.29 190.62 229.62 190.75 210.96 C 191.64 207.86 190.67 203.83 192.65 201.28 C 196.67 199.05 200.45 196.36 203.68 193.08 Z" />
<path fill="#dbdbda" opacity="1.00" d=" M 444.40 197.73 C 449.75 196.32 455.04 193.09 460.75 194.30 C 465.41 195.18 468.65 199.04 471.34 202.65 C 474.35 206.43 473.19 211.55 473.37 216.01 C 473.42 233.26 473.09 250.53 473.51 267.77 C 469.69 266.37 465.97 264.69 462.60 262.41 C 454.96 257.34 446.66 253.35 438.95 248.43 C 439.60 248.23 440.91 247.83 441.56 247.63 C 441.86 234.08 441.30 220.53 441.51 206.99 C 441.95 203.82 442.40 200.33 444.40 197.73 Z" />
</g>
<g id="#bebfbddb">
<path fill="#bebfbd" opacity="0.86" d=" M 444.40 197.73 C 445.89 193.58 450.25 191.92 454.12 190.75 C 458.95 189.77 464.20 190.85 468.21 193.73 C 472.87 197.25 474.86 203.31 474.57 208.99 C 474.61 228.72 474.87 248.47 474.38 268.20 L 473.51 267.77 C 473.09 250.53 473.42 233.26 473.37 216.01 C 473.19 211.55 474.35 206.43 471.34 202.65 C 468.65 199.04 465.41 195.18 460.75 194.30 C 455.04 193.09 449.75 196.32 444.40 197.73 Z" />
</g>
<g id="#b6b7b6d1">
<path fill="#b6b7b6" opacity="0.82" d=" M 117.95 241.94 C 119.45 237.35 123.45 233.58 128.22 232.64 C 132.95 232.20 138.23 231.67 142.37 234.51 C 145.29 236.62 148.35 239.16 148.96 242.94 C 144.51 238.69 138.55 235.13 132.26 235.32 C 125.60 235.77 121.74 241.60 117.81 246.18 C 117.83 244.76 117.87 243.35 117.95 241.94 Z" />
</g>
<g id="#bcbdbcd8">
<path fill="#bcbdbc" opacity="0.85" d=" M 521.69 236.43 C 525.12 231.10 532.28 232.35 537.66 232.68 C 544.52 234.76 549.65 241.99 548.65 249.23 C 545.53 243.18 540.99 236.41 533.67 235.47 C 529.66 235.54 525.73 236.76 521.69 236.43 Z" />
</g>
<g id="#dcdcdbfe">
<path fill="#dcdcdb" opacity="1.00" d=" M 117.81 246.18 C 121.74 241.60 125.60 235.77 132.26 235.32 C 138.55 235.13 144.51 238.69 148.96 242.94 L 149.44 243.49 C 149.96 252.99 149.39 262.51 149.77 272.01 C 150.33 276.65 150.90 281.43 149.80 286.04 C 149.13 287.97 150.32 289.72 150.95 291.47 C 151.75 291.44 153.34 291.37 154.13 291.33 C 151.25 294.42 146.97 295.34 143.46 297.46 C 134.53 302.66 125.88 308.35 116.61 312.94 C 116.34 292.63 116.57 272.31 116.47 252.00 C 116.34 248.57 117.02 245.21 117.95 241.94 C 117.87 243.35 117.83 244.76 117.81 246.18 Z" />
</g>
<g id="#dbdbdbfe">
<path fill="#dbdbdb" opacity="1.00" d=" M 521.69 236.43 C 525.73 236.76 529.66 235.54 533.67 235.47 C 540.99 236.41 545.53 243.18 548.65 249.23 C 550.70 256.34 548.13 263.75 548.61 271.00 C 548.86 277.00 548.43 283.01 548.78 289.01 C 550.27 296.75 547.89 304.49 548.63 312.29 C 543.92 309.68 538.99 307.44 534.50 304.46 C 526.79 299.34 518.10 295.81 510.73 290.16 C 512.27 290.59 513.78 291.13 515.31 291.65 C 516.31 276.81 514.98 261.88 515.69 247.03 C 516.71 243.22 518.01 238.28 521.69 236.43 Z" />
</g>
</svg>
